<?xml version="1.0" encoding="UTF-8" standalone="no"?>
<!-- Created with Inkscape (http://www.inkscape.org/) -->

<svg
   xmlns:dc="http://purl.org/dc/elements/1.1/"
   xmlns:cc="http://creativecommons.org/ns#"
   xmlns:rdf="http://www.w3.org/1999/02/22-rdf-syntax-ns#"
   xmlns:svg="http://www.w3.org/2000/svg"
   xmlns="http://www.w3.org/2000/svg"
   xmlns:sodipodi="http://sodipodi.sourceforge.net/DTD/sodipodi-0.dtd"
   xmlns:inkscape="http://www.inkscape.org/namespaces/inkscape"
   width="140.13"
   height="140.13046"
   id="svg3101"
   version="1.1"
   inkscape:version="0.48.1 r9760"
   sodipodi:docname="icon.svg"
   inkscape:export-filename="/home/stephej1/Projects/coupler-launcher/src/main/resources/tray_icon-16x16.png"
   inkscape:export-xdpi="10.28"
   inkscape:export-ydpi="10.28">
  <defs
     id="defs3103" />
  <sodipodi:namedview
     id="base"
     pagecolor="#ffffff"
     bordercolor="#666666"
     borderopacity="1.0"
     inkscape:pageopacity="0.0"
     inkscape:pageshadow="2"
     inkscape:zoom="1.979899"
     inkscape:cx="125.9974"
     inkscape:cy="115.98147"
     inkscape:document-units="px"
     inkscape:current-layer="layer1"
     showgrid="false"
     fit-margin-top="0"
     fit-margin-left="0"
     fit-margin-right="0"
     fit-margin-bottom="0"
     inkscape:window-width="1115"
     inkscape:window-height="794"
     inkscape:window-x="315"
     inkscape:window-y="118"
     inkscape:window-maximized="0" />
  <metadata
     id="metadata3106">
    <rdf:RDF>
      <cc:Work
         rdf:about="">
        <dc:format>image/svg+xml</dc:format>
        <dc:type
           rdf:resource="http://purl.org/dc/dcmitype/StillImage" />
        <dc:title />
      </cc:Work>
    </rdf:RDF>
  </metadata>
  <g
     inkscape:label="Layer 1"
     inkscape:groupmode="layer"
     id="layer1"
     transform="translate(-1.3009096e-7,-912.23172)">
    <path
       inkscape:connector-curvature="0"
       style="fill:#646464;fill-opacity:1;stroke:#000000;stroke-width:0.53071617999999998px;stroke-linecap:butt;stroke-linejoin:miter;stroke-opacity:1"
       d="m 103.92298,931.16935 c -2.88866,-4.56254 -7.22338,-8.03701 -11.10841,-11.78426 -1.000815,-0.96532 -1.980046,-1.97841 -3.136489,-2.74967 -2.059662,-1.37364 -4.26692,-2.6632 -6.665042,-3.2734 -3.042621,-0.7742 -6.399349,-1.28548 -9.409467,-0.39281 -1.587849,0.47088 -3.043676,1.564 -4.051299,2.8806 -1.526414,1.99447 -2.40158,4.56625 -2.613744,7.07056 -0.119955,1.4159 0.09278,2.94922 0.784124,4.18996 0.631343,1.13306 1.660854,2.16718 2.875116,2.61872 1.511637,0.56212 3.223173,-0.10911 4.835423,-0.13093 0.914725,-0.0124 1.876559,-0.28984 2.744424,0 1.239808,0.41405 2.179628,1.46503 3.136495,2.35685 0.972157,0.90608 2.008375,1.82756 2.613738,3.01154 0.693728,1.3568 1.004802,2.92791 1.045496,4.45183 0.04618,1.72875 -0.313227,3.48557 -0.91481,5.10651 -0.864472,2.3293 -1.878945,4.83159 -3.789921,6.41589 -2.176367,1.80431 -5.233473,2.18594 -7.971911,2.88059 -2.26354,0.57419 -4.615285,0.71415 -6.926421,1.04749 -3.176997,0.45823 -6.375887,0.7699 -9.540153,1.30937 -2.36666,0.40348 -4.69032,1.03754 -7.057102,1.4403 -1.907169,0.32454 -4.006878,-0.0544 -5.750233,0.78561 -1.13849,0.54857 -2.954154,1.37058 -2.74443,2.61873 1.216585,7.24041 -3.189886,5.28043 -3.136489,8.51086 0.02142,1.2975 1.55144,2.1382 2.613739,2.8806 2.852953,1.99383 6.444199,2.62624 9.670845,3.92809 4.787391,1.93156 9.649918,3.68264 14.375581,5.76119 2.123071,0.93382 3.959594,2.85508 6.272978,3.01154 1.415732,0.0958 2.70731,-0.85338 4.051299,-1.30936 1.357223,-0.46048 2.702745,-0.95493 4.051299,-1.4403 0.959724,-0.34542 1.92571,-0.67455 2.875116,-1.04749 0.836101,-0.32843 1.795597,-0.46853 2.483058,-1.04749 3.884993,-3.27181 5.372669,-8.63162 8.233284,-12.83176 2.848685,-4.18262 6.089488,-8.09068 8.886726,-12.30801 0.64919,-0.97878 1.18458,-2.03001 1.82962,-3.01154 1.11672,-1.69929 2.74,-3.10069 3.52855,-4.97558 0.56738,-1.34903 0.6912,-2.85994 0.78412,-4.32089 0.10541,-1.65746 0.0893,-3.35235 -0.26138,-4.97558 -0.50483,-2.33685 -1.33545,-4.65874 -2.61373,-6.67776 z"
       id="path3964-9-7"
       sodipodi:nodetypes="caaaaaaaaaaaaaaaaaaaassaaaaaaaaaaaaaaa" />
    <path
       inkscape:connector-curvature="0"
       style="fill:#000000;fill-opacity:1;stroke:#000000;stroke-width:0.53071618px;stroke-linecap:butt;stroke-linejoin:miter;stroke-opacity:1"
       d="m 91.736821,1052.0968 c 0,0 -0.62128,-17.4803 0,-26.1872 0.524077,-7.3448 -0.09836,-15.2516 3.136489,-21.8664 3.143069,-6.4271 11.37093,-13.16849 14.89833,-15.45049 8.05381,-5.21031 4.2011,-20.95333 3.52855,-24.35416 -0.67255,-3.40082 -4.17387,-18.48457 -7.0571,-27.49662 -0.62722,-1.9605 -1.11317,-4.02771 -2.22168,-5.7612 -1.14671,-1.79322 -2.695,-3.3715 -4.443364,-4.58277 -4.671937,-3.23674 -13.854113,-2.4149 -16.335887,2.22592 -1.628718,3.04563 -4.704895,5.91416 -1.960306,13.48644 0.988594,2.7275 1.130001,8.59864 0.130691,12.04614 -0.999309,3.44749 -6.680662,10.0051 -9.409472,9.82022 -8.040675,-0.54476 -17.537112,0.13576 -24.177108,0 -2.909601,-0.0595 -5.72378,-1.89545 -8.102598,-3.66622 -3.618413,-2.69351 -6.6493,-6.29222 -8.886721,-10.21303 -1.367488,-2.39636 -2.473068,-7.9189 -2.613739,-7.85618 0,0 -3.181753,-5.2165 -5.750232,0.13094 -3.276078,6.82062 -4.936237,27.95948 -0.130686,35.22187 4.04614,6.11473 17.009324,18.7103 23.262297,29.59164 2.829418,4.9237 4.938363,10.3214 6.272984,15.8433 0.947746,3.9212 1.176182,8.0115 1.176182,12.0461 l 0,17.0217 z"
       id="path3093-2-6"
       sodipodi:nodetypes="caaszaassszssassssssscc" />
  </g>
</svg>
